<svg 
 xmlns="http://www.w3.org/2000/svg"
 xmlns:xlink="http://www.w3.org/1999/xlink"
 width="24px" height="15px">
<path fill-rule="evenodd"  fill="rgb(140, 143, 148)"
 d="M21.350,8.070 L21.350,10.679 L19.422,10.679 L19.422,8.070 L16.771,8.070 L16.771,6.171 L19.422,6.171 L19.422,3.560 L21.350,3.560 L21.350,6.171 L24.000,6.171 L24.000,8.070 L21.350,8.070 ZM7.615,14.999 C3.410,14.999 0.001,11.642 0.001,7.500 C0.001,3.358 3.410,0.001 7.615,0.001 C9.595,0.001 11.397,0.746 12.752,1.966 L10.508,4.130 C9.727,3.479 8.718,3.086 7.615,3.086 C5.140,3.086 3.133,5.062 3.133,7.500 C3.133,9.938 5.140,11.914 7.615,11.914 C9.530,11.914 11.164,10.731 11.805,9.066 L7.519,9.066 L7.519,5.933 L11.805,5.933 L15.037,5.933 L15.062,5.933 C15.172,6.439 15.229,6.963 15.229,7.500 C15.229,11.642 11.820,14.999 7.615,14.999 Z"/>
</svg>