<svg 
 xmlns="http://www.w3.org/2000/svg"
 xmlns:xlink="http://www.w3.org/1999/xlink"
 width="17px" height="14px">
<path fill-rule="evenodd"  fill="#ffffff"
 d="M17.000,1.658 C16.375,1.939 15.702,2.129 14.997,2.215 C15.717,1.777 16.270,1.085 16.530,0.260 C15.855,0.665 15.110,0.959 14.315,1.117 C13.679,0.430 12.773,0.001 11.770,0.001 C9.844,0.001 8.282,1.583 8.282,3.536 C8.282,3.813 8.313,4.082 8.373,4.341 C5.475,4.194 2.905,2.786 1.185,0.648 C0.885,1.170 0.714,1.777 0.714,2.425 C0.714,3.651 1.330,4.733 2.265,5.366 C1.693,5.348 1.155,5.189 0.685,4.924 C0.685,4.939 0.685,4.953 0.685,4.968 C0.685,6.681 1.887,8.109 3.483,8.434 C3.190,8.515 2.883,8.558 2.564,8.558 C2.340,8.558 2.121,8.536 1.908,8.495 C2.352,9.898 3.640,10.920 5.166,10.948 C3.972,11.896 2.468,12.461 0.834,12.461 C0.553,12.461 0.275,12.444 0.002,12.413 C1.545,13.415 3.378,14.000 5.348,14.000 C11.762,14.000 15.270,8.615 15.270,3.945 C15.270,3.791 15.266,3.640 15.260,3.488 C15.941,2.989 16.533,2.367 17.000,1.660 L17.000,1.658 Z"/>
</svg>